<mxfile host="app.diagrams.net" modified="2020-11-27T10:42:08.964Z" agent="5.0 (Macintosh; Intel Mac OS X 10_15_6) AppleWebKit/537.36 (KHTML, like Gecko) Chrome/86.0.4240.198 Safari/537.36" etag="R6WSEemvzILt3aSfjZU0" version="13.9.9" type="github">
  <diagram id="vLK1QHzsZwCWe26-EjpD" name="Page-1">
    <mxGraphModel dx="1426" dy="1995" grid="1" gridSize="10" guides="1" tooltips="1" connect="1" arrows="1" fold="1" page="1" pageScale="1" pageWidth="827" pageHeight="1169" math="0" shadow="0">
      <root>
        <mxCell id="0" />
        <mxCell id="1" parent="0" />
        <mxCell id="SXSW4Jbu2w7X9lbYHK37-1" value="Sign in View" style="text;html=1;strokeColor=none;fillColor=none;align=center;verticalAlign=middle;whiteSpace=wrap;rounded=0;" vertex="1" parent="1">
          <mxGeometry x="130" y="-1169" width="130" height="29" as="geometry" />
        </mxCell>
        <mxCell id="SXSW4Jbu2w7X9lbYHK37-7" value="" style="group;fillColor=#ffffff;" vertex="1" connectable="0" parent="1">
          <mxGeometry x="100" y="-1140" width="210" height="380" as="geometry" />
        </mxCell>
        <mxCell id="SXSW4Jbu2w7X9lbYHK37-3" value="" style="rounded=1;whiteSpace=wrap;html=1;strokeWidth=5;fillColor=#FFFFFF;" vertex="1" parent="SXSW4Jbu2w7X9lbYHK37-7">
          <mxGeometry width="190" height="380" as="geometry" />
        </mxCell>
        <mxCell id="SXSW4Jbu2w7X9lbYHK37-4" value="" style="rounded=1;whiteSpace=wrap;html=1;fillColor=#000000;" vertex="1" parent="SXSW4Jbu2w7X9lbYHK37-7">
          <mxGeometry x="35" width="120" height="20" as="geometry" />
        </mxCell>
        <mxCell id="SXSW4Jbu2w7X9lbYHK37-10" value="" style="ellipse;whiteSpace=wrap;html=1;strokeWidth=5;fillColor=#FF6E6E;" vertex="1" parent="SXSW4Jbu2w7X9lbYHK37-7">
          <mxGeometry x="20" y="40" width="150" height="70" as="geometry" />
        </mxCell>
        <mxCell id="SXSW4Jbu2w7X9lbYHK37-11" value="&lt;font style=&quot;font-size: 22px&quot; color=&quot;#ff4545&quot;&gt;Startistic Logo&lt;/font&gt;" style="text;html=1;strokeColor=none;fillColor=none;align=center;verticalAlign=middle;whiteSpace=wrap;rounded=0;" vertex="1" parent="SXSW4Jbu2w7X9lbYHK37-7">
          <mxGeometry x="40" y="65" width="110" height="20" as="geometry" />
        </mxCell>
        <mxCell id="SXSW4Jbu2w7X9lbYHK37-12" value="" style="rounded=1;whiteSpace=wrap;html=1;strokeWidth=2;" vertex="1" parent="SXSW4Jbu2w7X9lbYHK37-7">
          <mxGeometry x="20" y="180" width="150" height="20" as="geometry" />
        </mxCell>
        <mxCell id="SXSW4Jbu2w7X9lbYHK37-13" value="&lt;font color=&quot;#ff0000&quot;&gt;Sign in:&lt;/font&gt;" style="text;html=1;strokeColor=none;fillColor=none;align=center;verticalAlign=middle;whiteSpace=wrap;rounded=0;" vertex="1" parent="SXSW4Jbu2w7X9lbYHK37-7">
          <mxGeometry x="70" y="130" width="45" height="20" as="geometry" />
        </mxCell>
        <mxCell id="SXSW4Jbu2w7X9lbYHK37-14" value="&lt;font color=&quot;#ff1222&quot;&gt;Username:&lt;/font&gt;" style="text;html=1;strokeColor=none;fillColor=none;align=center;verticalAlign=middle;whiteSpace=wrap;rounded=0;" vertex="1" parent="SXSW4Jbu2w7X9lbYHK37-7">
          <mxGeometry x="30" y="150" width="40" height="20" as="geometry" />
        </mxCell>
        <mxCell id="SXSW4Jbu2w7X9lbYHK37-16" value="&lt;font color=&quot;#ff0810&quot;&gt;Password:&lt;/font&gt;" style="text;html=1;strokeColor=none;fillColor=none;align=center;verticalAlign=middle;whiteSpace=wrap;rounded=0;" vertex="1" parent="SXSW4Jbu2w7X9lbYHK37-7">
          <mxGeometry x="27.5" y="210" width="40" height="20" as="geometry" />
        </mxCell>
        <mxCell id="SXSW4Jbu2w7X9lbYHK37-15" value="&lt;font color=&quot;#dedede&quot;&gt;Enter your username here...&lt;/font&gt;" style="text;html=1;strokeColor=none;fillColor=none;align=center;verticalAlign=middle;whiteSpace=wrap;rounded=0;" vertex="1" parent="SXSW4Jbu2w7X9lbYHK37-7">
          <mxGeometry x="5" y="180" width="180" height="20" as="geometry" />
        </mxCell>
        <mxCell id="SXSW4Jbu2w7X9lbYHK37-18" value="" style="rounded=1;whiteSpace=wrap;html=1;strokeWidth=2;" vertex="1" parent="SXSW4Jbu2w7X9lbYHK37-7">
          <mxGeometry x="20" y="240" width="150" height="20" as="geometry" />
        </mxCell>
        <mxCell id="SXSW4Jbu2w7X9lbYHK37-22" value="" style="group;fillColor=#FF0000;" vertex="1" connectable="0" parent="SXSW4Jbu2w7X9lbYHK37-7">
          <mxGeometry x="35" y="270" width="120" height="30" as="geometry" />
        </mxCell>
        <mxCell id="SXSW4Jbu2w7X9lbYHK37-19" value="" style="rounded=1;whiteSpace=wrap;html=1;strokeWidth=2;fillColor=#FF0000;" vertex="1" parent="SXSW4Jbu2w7X9lbYHK37-22">
          <mxGeometry width="120" height="30" as="geometry" />
        </mxCell>
        <mxCell id="SXSW4Jbu2w7X9lbYHK37-20" value="&lt;font color=&quot;#ffffff&quot;&gt;Sign in&lt;/font&gt;" style="text;html=1;strokeColor=none;fillColor=none;align=center;verticalAlign=middle;whiteSpace=wrap;rounded=0;" vertex="1" parent="SXSW4Jbu2w7X9lbYHK37-22">
          <mxGeometry x="15" y="5" width="90" height="20" as="geometry" />
        </mxCell>
        <mxCell id="SXSW4Jbu2w7X9lbYHK37-23" value="" style="group" vertex="1" connectable="0" parent="SXSW4Jbu2w7X9lbYHK37-7">
          <mxGeometry x="35" y="320" width="120" height="30" as="geometry" />
        </mxCell>
        <mxCell id="SXSW4Jbu2w7X9lbYHK37-24" value="" style="rounded=1;whiteSpace=wrap;html=1;strokeWidth=2;fillColor=#FF0000;" vertex="1" parent="SXSW4Jbu2w7X9lbYHK37-23">
          <mxGeometry width="120" height="30" as="geometry" />
        </mxCell>
        <mxCell id="SXSW4Jbu2w7X9lbYHK37-25" value="&lt;font color=&quot;#ffffff&quot;&gt;Sign up&lt;/font&gt;" style="text;html=1;strokeColor=none;fillColor=none;align=center;verticalAlign=middle;whiteSpace=wrap;rounded=0;" vertex="1" parent="SXSW4Jbu2w7X9lbYHK37-23">
          <mxGeometry x="15" y="5" width="90" height="20" as="geometry" />
        </mxCell>
        <mxCell id="SXSW4Jbu2w7X9lbYHK37-17" value="&lt;font color=&quot;#dedede&quot;&gt;Enter your username here...&lt;/font&gt;" style="text;html=1;strokeColor=none;fillColor=none;align=center;verticalAlign=middle;whiteSpace=wrap;rounded=0;" vertex="1" parent="SXSW4Jbu2w7X9lbYHK37-7">
          <mxGeometry x="5" y="240" width="180" height="20" as="geometry" />
        </mxCell>
        <mxCell id="SXSW4Jbu2w7X9lbYHK37-8" value="" style="group" vertex="1" connectable="0" parent="1">
          <mxGeometry x="520" y="-1140" width="190" height="380" as="geometry" />
        </mxCell>
        <mxCell id="SXSW4Jbu2w7X9lbYHK37-5" value="" style="rounded=1;whiteSpace=wrap;html=1;strokeWidth=5;" vertex="1" parent="SXSW4Jbu2w7X9lbYHK37-8">
          <mxGeometry width="190" height="380" as="geometry" />
        </mxCell>
        <mxCell id="SXSW4Jbu2w7X9lbYHK37-6" value="" style="rounded=1;whiteSpace=wrap;html=1;fillColor=#000000;" vertex="1" parent="SXSW4Jbu2w7X9lbYHK37-8">
          <mxGeometry x="35" width="120" height="20" as="geometry" />
        </mxCell>
        <mxCell id="SXSW4Jbu2w7X9lbYHK37-9" value="User Profile View" style="text;html=1;strokeColor=none;fillColor=none;align=center;verticalAlign=middle;whiteSpace=wrap;rounded=0;" vertex="1" parent="1">
          <mxGeometry x="550" y="-1164" width="130" height="20" as="geometry" />
        </mxCell>
      </root>
    </mxGraphModel>
  </diagram>
</mxfile>
